<mxfile host="app.diagrams.net" modified="2023-11-14T21:33:19.739Z" agent="Mozilla/5.0 (Macintosh; Intel Mac OS X 10_15_7) AppleWebKit/537.36 (KHTML, like Gecko) Chrome/119.0.0.0 Safari/537.36" etag="bTYzx0O07WUtqSYk29MS" version="22.1.1" type="google" pages="4">
  <diagram name="Page-1" id="dFdrBLwXcI0g6NXT__TZ">
    <mxGraphModel dx="954" dy="523" grid="1" gridSize="10" guides="1" tooltips="1" connect="1" arrows="1" fold="1" page="1" pageScale="1" pageWidth="827" pageHeight="1169" math="0" shadow="0">
      <root>
        <mxCell id="0" />
        <mxCell id="1" parent="0" />
        <mxCell id="KpnaqKVx0pZOBvi4CvRC-1" value="&lt;span style=&quot;background-color: rgb(185, 224, 165);&quot;&gt;Car Rental Company&lt;/span&gt;" style="swimlane;whiteSpace=wrap;html=1;fillColor=#00CC00;" parent="1" vertex="1">
          <mxGeometry x="324" y="50" width="180" height="90" as="geometry" />
        </mxCell>
        <mxCell id="KpnaqKVx0pZOBvi4CvRC-4" style="edgeStyle=orthogonalEdgeStyle;rounded=0;orthogonalLoop=1;jettySize=auto;html=1;entryX=0;entryY=0.5;entryDx=0;entryDy=0;exitX=0.5;exitY=0;exitDx=0;exitDy=0;endArrow=diamond;endFill=0;startArrow=none;startFill=0;strokeWidth=1;endSize=10;" parent="1" source="KpnaqKVx0pZOBvi4CvRC-2" target="KpnaqKVx0pZOBvi4CvRC-1" edge="1">
          <mxGeometry relative="1" as="geometry" />
        </mxCell>
        <mxCell id="KpnaqKVx0pZOBvi4CvRC-13" style="edgeStyle=orthogonalEdgeStyle;rounded=0;orthogonalLoop=1;jettySize=auto;html=1;entryX=0;entryY=0.5;entryDx=0;entryDy=0;endArrow=none;endFill=0;" parent="1" source="KpnaqKVx0pZOBvi4CvRC-2" target="KpnaqKVx0pZOBvi4CvRC-9" edge="1">
          <mxGeometry relative="1" as="geometry" />
        </mxCell>
        <mxCell id="KpnaqKVx0pZOBvi4CvRC-2" value="&lt;span style=&quot;background-color: rgb(185, 224, 165);&quot;&gt;Car&lt;/span&gt;" style="swimlane;whiteSpace=wrap;html=1;fillColor=#00CC00;" parent="1" vertex="1">
          <mxGeometry y="240" width="180" height="90" as="geometry" />
        </mxCell>
        <mxCell id="KpnaqKVx0pZOBvi4CvRC-6" style="edgeStyle=orthogonalEdgeStyle;rounded=0;orthogonalLoop=1;jettySize=auto;html=1;entryX=1;entryY=0.5;entryDx=0;entryDy=0;exitX=0.5;exitY=0;exitDx=0;exitDy=0;endArrow=diamond;endFill=0;startArrow=none;startFill=0;endSize=10;" parent="1" source="KpnaqKVx0pZOBvi4CvRC-3" target="KpnaqKVx0pZOBvi4CvRC-1" edge="1">
          <mxGeometry relative="1" as="geometry" />
        </mxCell>
        <mxCell id="KpnaqKVx0pZOBvi4CvRC-3" value="&lt;span style=&quot;background-color: rgb(185, 224, 165);&quot;&gt;Renter&lt;/span&gt;" style="swimlane;whiteSpace=wrap;html=1;fillColor=#00CC00;" parent="1" vertex="1">
          <mxGeometry x="680" y="240" width="180" height="90" as="geometry" />
        </mxCell>
        <mxCell id="KpnaqKVx0pZOBvi4CvRC-5" value="0..*" style="text;html=1;strokeColor=none;fillColor=none;align=center;verticalAlign=middle;whiteSpace=wrap;rounded=0;fontSize=20;" parent="1" vertex="1">
          <mxGeometry x="710" y="210" width="60" height="30" as="geometry" />
        </mxCell>
        <mxCell id="KpnaqKVx0pZOBvi4CvRC-8" value="0..*" style="text;html=1;strokeColor=none;fillColor=none;align=center;verticalAlign=middle;whiteSpace=wrap;rounded=0;fontSize=20;" parent="1" vertex="1">
          <mxGeometry x="90" y="210" width="60" height="30" as="geometry" />
        </mxCell>
        <mxCell id="KpnaqKVx0pZOBvi4CvRC-10" style="edgeStyle=orthogonalEdgeStyle;rounded=0;orthogonalLoop=1;jettySize=auto;html=1;entryX=0.5;entryY=1;entryDx=0;entryDy=0;endArrow=diamond;endFill=0;endSize=10;" parent="1" source="KpnaqKVx0pZOBvi4CvRC-9" target="KpnaqKVx0pZOBvi4CvRC-1" edge="1">
          <mxGeometry relative="1" as="geometry" />
        </mxCell>
        <mxCell id="KpnaqKVx0pZOBvi4CvRC-12" style="edgeStyle=orthogonalEdgeStyle;rounded=0;orthogonalLoop=1;jettySize=auto;html=1;entryX=0;entryY=0.5;entryDx=0;entryDy=0;endArrow=none;endFill=0;" parent="1" source="KpnaqKVx0pZOBvi4CvRC-9" target="KpnaqKVx0pZOBvi4CvRC-3" edge="1">
          <mxGeometry relative="1" as="geometry" />
        </mxCell>
        <mxCell id="KpnaqKVx0pZOBvi4CvRC-9" value="&lt;span style=&quot;background-color: rgb(185, 224, 165);&quot;&gt;Rental Record&lt;/span&gt;" style="swimlane;whiteSpace=wrap;html=1;fillColor=#00CC00;" parent="1" vertex="1">
          <mxGeometry x="324" y="240" width="180" height="90" as="geometry" />
        </mxCell>
        <mxCell id="KpnaqKVx0pZOBvi4CvRC-11" value="1" style="text;html=1;strokeColor=none;fillColor=none;align=center;verticalAlign=middle;whiteSpace=wrap;rounded=0;fontSize=20;" parent="1" vertex="1">
          <mxGeometry x="414" y="206" width="60" height="30" as="geometry" />
        </mxCell>
        <mxCell id="KpnaqKVx0pZOBvi4CvRC-14" value="0..*" style="text;html=1;strokeColor=none;fillColor=none;align=center;verticalAlign=middle;whiteSpace=wrap;rounded=0;fontSize=20;" parent="1" vertex="1">
          <mxGeometry x="620" y="250" width="60" height="30" as="geometry" />
        </mxCell>
        <mxCell id="KpnaqKVx0pZOBvi4CvRC-15" value="0..*" style="text;html=1;strokeColor=none;fillColor=none;align=center;verticalAlign=middle;whiteSpace=wrap;rounded=0;fontSize=20;" parent="1" vertex="1">
          <mxGeometry x="180" y="254" width="60" height="30" as="geometry" />
        </mxCell>
      </root>
    </mxGraphModel>
  </diagram>
  <diagram id="3mQKZFj2JhLILCsAQloE" name="Page-2">
    <mxGraphModel dx="954" dy="523" grid="1" gridSize="10" guides="1" tooltips="1" connect="1" arrows="1" fold="1" page="1" pageScale="1" pageWidth="827" pageHeight="1169" math="0" shadow="0">
      <root>
        <mxCell id="0" />
        <mxCell id="1" parent="0" />
        <mxCell id="jL5M0Zc4ggq2LAUP7lm5-1" value="Fetch Patients" style="rounded=1;whiteSpace=wrap;html=1;fillColor=#dae8fc;strokeColor=#6c8ebf;" parent="1" vertex="1">
          <mxGeometry x="470" y="260" width="120" height="60" as="geometry" />
        </mxCell>
        <mxCell id="jL5M0Zc4ggq2LAUP7lm5-3" style="edgeStyle=orthogonalEdgeStyle;rounded=0;orthogonalLoop=1;jettySize=auto;html=1;" parent="1" source="jL5M0Zc4ggq2LAUP7lm5-2" target="jL5M0Zc4ggq2LAUP7lm5-1" edge="1">
          <mxGeometry relative="1" as="geometry" />
        </mxCell>
        <mxCell id="jL5M0Zc4ggq2LAUP7lm5-2" value="Search Form" style="rounded=1;whiteSpace=wrap;html=1;fillColor=#d5e8d4;strokeColor=#82b366;" parent="1" vertex="1">
          <mxGeometry x="70" y="260" width="120" height="60" as="geometry" />
        </mxCell>
        <mxCell id="jL5M0Zc4ggq2LAUP7lm5-4" value="" style="shape=cylinder3;whiteSpace=wrap;html=1;boundedLbl=1;backgroundOutline=1;size=15;" parent="1" vertex="1">
          <mxGeometry x="780" y="250" width="60" height="80" as="geometry" />
        </mxCell>
        <mxCell id="jL5M0Zc4ggq2LAUP7lm5-5" style="edgeStyle=orthogonalEdgeStyle;rounded=0;orthogonalLoop=1;jettySize=auto;html=1;entryX=0;entryY=0.5;entryDx=0;entryDy=0;entryPerimeter=0;" parent="1" source="jL5M0Zc4ggq2LAUP7lm5-1" target="jL5M0Zc4ggq2LAUP7lm5-4" edge="1">
          <mxGeometry relative="1" as="geometry" />
        </mxCell>
        <mxCell id="jL5M0Zc4ggq2LAUP7lm5-6" value="" style="rounded=1;whiteSpace=wrap;html=1;" parent="1" vertex="1">
          <mxGeometry x="80" y="330" width="380" height="310" as="geometry" />
        </mxCell>
        <mxCell id="jL5M0Zc4ggq2LAUP7lm5-7" value="Search Results" style="rounded=0;whiteSpace=wrap;html=1;" parent="1" vertex="1">
          <mxGeometry x="120" y="510" width="290" height="100" as="geometry" />
        </mxCell>
        <mxCell id="jL5M0Zc4ggq2LAUP7lm5-8" value="Search form" style="rounded=0;whiteSpace=wrap;html=1;" parent="1" vertex="1">
          <mxGeometry x="125" y="360" width="290" height="100" as="geometry" />
        </mxCell>
      </root>
    </mxGraphModel>
  </diagram>
  <diagram id="K6en5P_cUSuNg2VQRq52" name="Page-3">
    <mxGraphModel grid="1" page="1" gridSize="10" guides="1" tooltips="1" connect="1" arrows="1" fold="1" pageScale="1" pageWidth="827" pageHeight="1169" math="0" shadow="0">
      <root>
        <mxCell id="0" />
        <mxCell id="1" parent="0" />
        <mxCell id="ZYrwEl29k-XDNVmyXL6u-16" value="Patient Basic Info" style="shape=table;startSize=30;container=1;collapsible=0;childLayout=tableLayout;" vertex="1" parent="1">
          <mxGeometry y="40" width="630" height="200" as="geometry" />
        </mxCell>
        <mxCell id="ZYrwEl29k-XDNVmyXL6u-17" value="" style="shape=tableRow;horizontal=0;startSize=0;swimlaneHead=0;swimlaneBody=0;strokeColor=inherit;top=0;left=0;bottom=0;right=0;collapsible=0;dropTarget=0;fillColor=none;points=[[0,0.5],[1,0.5]];portConstraint=eastwest;" vertex="1" parent="ZYrwEl29k-XDNVmyXL6u-16">
          <mxGeometry y="30" width="630" height="65" as="geometry" />
        </mxCell>
        <mxCell id="ZYrwEl29k-XDNVmyXL6u-18" value="Patient ID" style="shape=partialRectangle;html=1;whiteSpace=wrap;connectable=0;strokeColor=#82b366;overflow=hidden;fillColor=#d5e8d4;top=0;left=0;bottom=0;right=0;pointerEvents=1;" vertex="1" parent="ZYrwEl29k-XDNVmyXL6u-17">
          <mxGeometry width="72" height="65" as="geometry">
            <mxRectangle width="72" height="65" as="alternateBounds" />
          </mxGeometry>
        </mxCell>
        <mxCell id="ZYrwEl29k-XDNVmyXL6u-20" value="First Name" style="shape=partialRectangle;html=1;whiteSpace=wrap;connectable=0;strokeColor=inherit;overflow=hidden;fillColor=none;top=0;left=0;bottom=0;right=0;pointerEvents=1;" vertex="1" parent="ZYrwEl29k-XDNVmyXL6u-17">
          <mxGeometry x="72" width="66" height="65" as="geometry">
            <mxRectangle width="66" height="65" as="alternateBounds" />
          </mxGeometry>
        </mxCell>
        <mxCell id="ZYrwEl29k-XDNVmyXL6u-21" value="Last Name" style="shape=partialRectangle;html=1;whiteSpace=wrap;connectable=0;strokeColor=inherit;overflow=hidden;fillColor=none;top=0;left=0;bottom=0;right=0;pointerEvents=1;" vertex="1" parent="ZYrwEl29k-XDNVmyXL6u-17">
          <mxGeometry x="138" width="65" height="65" as="geometry">
            <mxRectangle width="65" height="65" as="alternateBounds" />
          </mxGeometry>
        </mxCell>
        <mxCell id="ZYrwEl29k-XDNVmyXL6u-22" value="Date of Birth" style="shape=partialRectangle;html=1;whiteSpace=wrap;connectable=0;strokeColor=inherit;overflow=hidden;fillColor=none;top=0;left=0;bottom=0;right=0;pointerEvents=1;" vertex="1" parent="ZYrwEl29k-XDNVmyXL6u-17">
          <mxGeometry x="203" width="66" height="65" as="geometry">
            <mxRectangle width="66" height="65" as="alternateBounds" />
          </mxGeometry>
        </mxCell>
        <mxCell id="ZYrwEl29k-XDNVmyXL6u-23" value="Insurance ID" style="shape=partialRectangle;html=1;whiteSpace=wrap;connectable=0;strokeColor=inherit;overflow=hidden;fillColor=none;top=0;left=0;bottom=0;right=0;pointerEvents=1;" vertex="1" parent="ZYrwEl29k-XDNVmyXL6u-17">
          <mxGeometry x="269" width="77" height="65" as="geometry">
            <mxRectangle width="77" height="65" as="alternateBounds" />
          </mxGeometry>
        </mxCell>
        <mxCell id="ZYrwEl29k-XDNVmyXL6u-38" value="Address" style="shape=partialRectangle;html=1;whiteSpace=wrap;connectable=0;strokeColor=inherit;overflow=hidden;fillColor=none;top=0;left=0;bottom=0;right=0;pointerEvents=1;" vertex="1" parent="ZYrwEl29k-XDNVmyXL6u-17">
          <mxGeometry x="346" width="65" height="65" as="geometry">
            <mxRectangle width="65" height="65" as="alternateBounds" />
          </mxGeometry>
        </mxCell>
        <mxCell id="ZYrwEl29k-XDNVmyXL6u-44" value="Gender" style="shape=partialRectangle;html=1;whiteSpace=wrap;connectable=0;strokeColor=inherit;overflow=hidden;fillColor=none;top=0;left=0;bottom=0;right=0;pointerEvents=1;" vertex="1" parent="ZYrwEl29k-XDNVmyXL6u-17">
          <mxGeometry x="411" width="66" height="65" as="geometry">
            <mxRectangle width="66" height="65" as="alternateBounds" />
          </mxGeometry>
        </mxCell>
        <mxCell id="YJUm__-WV3ZsGlKypcZS-1" value="Phone Number" style="shape=partialRectangle;html=1;whiteSpace=wrap;connectable=0;strokeColor=inherit;overflow=hidden;fillColor=none;top=0;left=0;bottom=0;right=0;pointerEvents=1;" vertex="1" parent="ZYrwEl29k-XDNVmyXL6u-17">
          <mxGeometry x="477" width="76" height="65" as="geometry">
            <mxRectangle width="76" height="65" as="alternateBounds" />
          </mxGeometry>
        </mxCell>
        <mxCell id="ZYrwEl29k-XDNVmyXL6u-41" value="Emergency Contact" style="shape=partialRectangle;html=1;whiteSpace=wrap;connectable=0;strokeColor=inherit;overflow=hidden;fillColor=none;top=0;left=0;bottom=0;right=0;pointerEvents=1;" vertex="1" parent="ZYrwEl29k-XDNVmyXL6u-17">
          <mxGeometry x="553" width="77" height="65" as="geometry">
            <mxRectangle width="77" height="65" as="alternateBounds" />
          </mxGeometry>
        </mxCell>
        <mxCell id="ZYrwEl29k-XDNVmyXL6u-24" value="" style="shape=tableRow;horizontal=0;startSize=0;swimlaneHead=0;swimlaneBody=0;strokeColor=inherit;top=0;left=0;bottom=0;right=0;collapsible=0;dropTarget=0;fillColor=none;points=[[0,0.5],[1,0.5]];portConstraint=eastwest;" vertex="1" parent="ZYrwEl29k-XDNVmyXL6u-16">
          <mxGeometry y="95" width="630" height="53" as="geometry" />
        </mxCell>
        <mxCell id="ZYrwEl29k-XDNVmyXL6u-25" value="baarr4556" style="shape=partialRectangle;html=1;whiteSpace=wrap;connectable=0;strokeColor=inherit;overflow=hidden;fillColor=none;top=0;left=0;bottom=0;right=0;pointerEvents=1;" vertex="1" parent="ZYrwEl29k-XDNVmyXL6u-24">
          <mxGeometry width="72" height="53" as="geometry">
            <mxRectangle width="72" height="53" as="alternateBounds" />
          </mxGeometry>
        </mxCell>
        <mxCell id="ZYrwEl29k-XDNVmyXL6u-27" value="Barun" style="shape=partialRectangle;html=1;whiteSpace=wrap;connectable=0;strokeColor=inherit;overflow=hidden;fillColor=none;top=0;left=0;bottom=0;right=0;pointerEvents=1;" vertex="1" parent="ZYrwEl29k-XDNVmyXL6u-24">
          <mxGeometry x="72" width="66" height="53" as="geometry">
            <mxRectangle width="66" height="53" as="alternateBounds" />
          </mxGeometry>
        </mxCell>
        <mxCell id="ZYrwEl29k-XDNVmyXL6u-28" value="Maz" style="shape=partialRectangle;html=1;whiteSpace=wrap;connectable=0;strokeColor=inherit;overflow=hidden;fillColor=none;top=0;left=0;bottom=0;right=0;pointerEvents=1;" vertex="1" parent="ZYrwEl29k-XDNVmyXL6u-24">
          <mxGeometry x="138" width="65" height="53" as="geometry">
            <mxRectangle width="65" height="53" as="alternateBounds" />
          </mxGeometry>
        </mxCell>
        <mxCell id="ZYrwEl29k-XDNVmyXL6u-29" value="14/10/1992" style="shape=partialRectangle;html=1;whiteSpace=wrap;connectable=0;strokeColor=inherit;overflow=hidden;fillColor=none;top=0;left=0;bottom=0;right=0;pointerEvents=1;" vertex="1" parent="ZYrwEl29k-XDNVmyXL6u-24">
          <mxGeometry x="203" width="66" height="53" as="geometry">
            <mxRectangle width="66" height="53" as="alternateBounds" />
          </mxGeometry>
        </mxCell>
        <mxCell id="ZYrwEl29k-XDNVmyXL6u-30" value="-" style="shape=partialRectangle;html=1;whiteSpace=wrap;connectable=0;strokeColor=inherit;overflow=hidden;fillColor=none;top=0;left=0;bottom=0;right=0;pointerEvents=1;" vertex="1" parent="ZYrwEl29k-XDNVmyXL6u-24">
          <mxGeometry x="269" width="77" height="53" as="geometry">
            <mxRectangle width="77" height="53" as="alternateBounds" />
          </mxGeometry>
        </mxCell>
        <mxCell id="ZYrwEl29k-XDNVmyXL6u-39" value="-" style="shape=partialRectangle;html=1;whiteSpace=wrap;connectable=0;strokeColor=inherit;overflow=hidden;fillColor=none;top=0;left=0;bottom=0;right=0;pointerEvents=1;" vertex="1" parent="ZYrwEl29k-XDNVmyXL6u-24">
          <mxGeometry x="346" width="65" height="53" as="geometry">
            <mxRectangle width="65" height="53" as="alternateBounds" />
          </mxGeometry>
        </mxCell>
        <mxCell id="ZYrwEl29k-XDNVmyXL6u-45" value="Male" style="shape=partialRectangle;html=1;whiteSpace=wrap;connectable=0;strokeColor=inherit;overflow=hidden;fillColor=none;top=0;left=0;bottom=0;right=0;pointerEvents=1;" vertex="1" parent="ZYrwEl29k-XDNVmyXL6u-24">
          <mxGeometry x="411" width="66" height="53" as="geometry">
            <mxRectangle width="66" height="53" as="alternateBounds" />
          </mxGeometry>
        </mxCell>
        <mxCell id="YJUm__-WV3ZsGlKypcZS-2" value="" style="shape=partialRectangle;html=1;whiteSpace=wrap;connectable=0;strokeColor=inherit;overflow=hidden;fillColor=none;top=0;left=0;bottom=0;right=0;pointerEvents=1;" vertex="1" parent="ZYrwEl29k-XDNVmyXL6u-24">
          <mxGeometry x="477" width="76" height="53" as="geometry">
            <mxRectangle width="76" height="53" as="alternateBounds" />
          </mxGeometry>
        </mxCell>
        <mxCell id="ZYrwEl29k-XDNVmyXL6u-42" value="-" style="shape=partialRectangle;html=1;whiteSpace=wrap;connectable=0;strokeColor=inherit;overflow=hidden;fillColor=none;top=0;left=0;bottom=0;right=0;pointerEvents=1;" vertex="1" parent="ZYrwEl29k-XDNVmyXL6u-24">
          <mxGeometry x="553" width="77" height="53" as="geometry">
            <mxRectangle width="77" height="53" as="alternateBounds" />
          </mxGeometry>
        </mxCell>
        <mxCell id="ZYrwEl29k-XDNVmyXL6u-31" value="" style="shape=tableRow;horizontal=0;startSize=0;swimlaneHead=0;swimlaneBody=0;strokeColor=inherit;top=0;left=0;bottom=0;right=0;collapsible=0;dropTarget=0;fillColor=none;points=[[0,0.5],[1,0.5]];portConstraint=eastwest;" vertex="1" parent="ZYrwEl29k-XDNVmyXL6u-16">
          <mxGeometry y="148" width="630" height="52" as="geometry" />
        </mxCell>
        <mxCell id="ZYrwEl29k-XDNVmyXL6u-32" value="" style="shape=partialRectangle;html=1;whiteSpace=wrap;connectable=0;strokeColor=inherit;overflow=hidden;fillColor=none;top=0;left=0;bottom=0;right=0;pointerEvents=1;" vertex="1" parent="ZYrwEl29k-XDNVmyXL6u-31">
          <mxGeometry width="72" height="52" as="geometry">
            <mxRectangle width="72" height="52" as="alternateBounds" />
          </mxGeometry>
        </mxCell>
        <mxCell id="ZYrwEl29k-XDNVmyXL6u-34" value="" style="shape=partialRectangle;html=1;whiteSpace=wrap;connectable=0;strokeColor=inherit;overflow=hidden;fillColor=none;top=0;left=0;bottom=0;right=0;pointerEvents=1;" vertex="1" parent="ZYrwEl29k-XDNVmyXL6u-31">
          <mxGeometry x="72" width="66" height="52" as="geometry">
            <mxRectangle width="66" height="52" as="alternateBounds" />
          </mxGeometry>
        </mxCell>
        <mxCell id="ZYrwEl29k-XDNVmyXL6u-35" value="" style="shape=partialRectangle;html=1;whiteSpace=wrap;connectable=0;strokeColor=inherit;overflow=hidden;fillColor=none;top=0;left=0;bottom=0;right=0;pointerEvents=1;" vertex="1" parent="ZYrwEl29k-XDNVmyXL6u-31">
          <mxGeometry x="138" width="65" height="52" as="geometry">
            <mxRectangle width="65" height="52" as="alternateBounds" />
          </mxGeometry>
        </mxCell>
        <mxCell id="ZYrwEl29k-XDNVmyXL6u-36" value="" style="shape=partialRectangle;html=1;whiteSpace=wrap;connectable=0;strokeColor=inherit;overflow=hidden;fillColor=none;top=0;left=0;bottom=0;right=0;pointerEvents=1;" vertex="1" parent="ZYrwEl29k-XDNVmyXL6u-31">
          <mxGeometry x="203" width="66" height="52" as="geometry">
            <mxRectangle width="66" height="52" as="alternateBounds" />
          </mxGeometry>
        </mxCell>
        <mxCell id="ZYrwEl29k-XDNVmyXL6u-37" value="" style="shape=partialRectangle;html=1;whiteSpace=wrap;connectable=0;strokeColor=inherit;overflow=hidden;fillColor=none;top=0;left=0;bottom=0;right=0;pointerEvents=1;" vertex="1" parent="ZYrwEl29k-XDNVmyXL6u-31">
          <mxGeometry x="269" width="77" height="52" as="geometry">
            <mxRectangle width="77" height="52" as="alternateBounds" />
          </mxGeometry>
        </mxCell>
        <mxCell id="ZYrwEl29k-XDNVmyXL6u-40" style="shape=partialRectangle;html=1;whiteSpace=wrap;connectable=0;strokeColor=inherit;overflow=hidden;fillColor=none;top=0;left=0;bottom=0;right=0;pointerEvents=1;" vertex="1" parent="ZYrwEl29k-XDNVmyXL6u-31">
          <mxGeometry x="346" width="65" height="52" as="geometry">
            <mxRectangle width="65" height="52" as="alternateBounds" />
          </mxGeometry>
        </mxCell>
        <mxCell id="ZYrwEl29k-XDNVmyXL6u-46" style="shape=partialRectangle;html=1;whiteSpace=wrap;connectable=0;strokeColor=inherit;overflow=hidden;fillColor=none;top=0;left=0;bottom=0;right=0;pointerEvents=1;" vertex="1" parent="ZYrwEl29k-XDNVmyXL6u-31">
          <mxGeometry x="411" width="66" height="52" as="geometry">
            <mxRectangle width="66" height="52" as="alternateBounds" />
          </mxGeometry>
        </mxCell>
        <mxCell id="YJUm__-WV3ZsGlKypcZS-3" style="shape=partialRectangle;html=1;whiteSpace=wrap;connectable=0;strokeColor=inherit;overflow=hidden;fillColor=none;top=0;left=0;bottom=0;right=0;pointerEvents=1;" vertex="1" parent="ZYrwEl29k-XDNVmyXL6u-31">
          <mxGeometry x="477" width="76" height="52" as="geometry">
            <mxRectangle width="76" height="52" as="alternateBounds" />
          </mxGeometry>
        </mxCell>
        <mxCell id="ZYrwEl29k-XDNVmyXL6u-43" style="shape=partialRectangle;html=1;whiteSpace=wrap;connectable=0;strokeColor=inherit;overflow=hidden;fillColor=none;top=0;left=0;bottom=0;right=0;pointerEvents=1;" vertex="1" parent="ZYrwEl29k-XDNVmyXL6u-31">
          <mxGeometry x="553" width="77" height="52" as="geometry">
            <mxRectangle width="77" height="52" as="alternateBounds" />
          </mxGeometry>
        </mxCell>
        <mxCell id="ZYrwEl29k-XDNVmyXL6u-78" value="Patient X-Rays" style="shape=table;startSize=30;container=1;collapsible=0;childLayout=tableLayout;" vertex="1" parent="1">
          <mxGeometry x="260" y="550" width="386" height="110" as="geometry" />
        </mxCell>
        <mxCell id="ZYrwEl29k-XDNVmyXL6u-79" value="" style="shape=tableRow;horizontal=0;startSize=0;swimlaneHead=0;swimlaneBody=0;strokeColor=inherit;top=0;left=0;bottom=0;right=0;collapsible=0;dropTarget=0;fillColor=none;points=[[0,0.5],[1,0.5]];portConstraint=eastwest;" vertex="1" parent="ZYrwEl29k-XDNVmyXL6u-78">
          <mxGeometry y="30" width="386" height="40" as="geometry" />
        </mxCell>
        <mxCell id="ZYrwEl29k-XDNVmyXL6u-124" value="X-Ray Takers ID" style="shape=partialRectangle;html=1;whiteSpace=wrap;connectable=0;strokeColor=inherit;overflow=hidden;fillColor=none;top=0;left=0;bottom=0;right=0;pointerEvents=1;" vertex="1" parent="ZYrwEl29k-XDNVmyXL6u-79">
          <mxGeometry width="60" height="40" as="geometry">
            <mxRectangle width="60" height="40" as="alternateBounds" />
          </mxGeometry>
        </mxCell>
        <mxCell id="ZYrwEl29k-XDNVmyXL6u-128" value="X-Ray ID" style="shape=partialRectangle;html=1;whiteSpace=wrap;connectable=0;strokeColor=inherit;overflow=hidden;fillColor=none;top=0;left=0;bottom=0;right=0;pointerEvents=1;" vertex="1" parent="ZYrwEl29k-XDNVmyXL6u-79">
          <mxGeometry x="60" width="60" height="40" as="geometry">
            <mxRectangle width="60" height="40" as="alternateBounds" />
          </mxGeometry>
        </mxCell>
        <mxCell id="ZYrwEl29k-XDNVmyXL6u-80" value="Patient ID" style="shape=partialRectangle;html=1;whiteSpace=wrap;connectable=0;strokeColor=inherit;overflow=hidden;fillColor=none;top=0;left=0;bottom=0;right=0;pointerEvents=1;" vertex="1" parent="ZYrwEl29k-XDNVmyXL6u-79">
          <mxGeometry x="120" width="60" height="40" as="geometry">
            <mxRectangle width="60" height="40" as="alternateBounds" />
          </mxGeometry>
        </mxCell>
        <mxCell id="ZYrwEl29k-XDNVmyXL6u-81" value="Date of X-ray" style="shape=partialRectangle;html=1;whiteSpace=wrap;connectable=0;strokeColor=inherit;overflow=hidden;fillColor=none;top=0;left=0;bottom=0;right=0;pointerEvents=1;" vertex="1" parent="ZYrwEl29k-XDNVmyXL6u-79">
          <mxGeometry x="180" width="76" height="40" as="geometry">
            <mxRectangle width="76" height="40" as="alternateBounds" />
          </mxGeometry>
        </mxCell>
        <mxCell id="ZYrwEl29k-XDNVmyXL6u-82" value="X-ray S3 location" style="shape=partialRectangle;html=1;whiteSpace=wrap;connectable=0;strokeColor=inherit;overflow=hidden;fillColor=none;top=0;left=0;bottom=0;right=0;pointerEvents=1;" vertex="1" parent="ZYrwEl29k-XDNVmyXL6u-79">
          <mxGeometry x="256" width="60" height="40" as="geometry">
            <mxRectangle width="60" height="40" as="alternateBounds" />
          </mxGeometry>
        </mxCell>
        <mxCell id="ZYrwEl29k-XDNVmyXL6u-83" value="Comments" style="shape=partialRectangle;html=1;whiteSpace=wrap;connectable=0;strokeColor=inherit;overflow=hidden;fillColor=none;top=0;left=0;bottom=0;right=0;pointerEvents=1;" vertex="1" parent="ZYrwEl29k-XDNVmyXL6u-79">
          <mxGeometry x="316" width="70" height="40" as="geometry">
            <mxRectangle width="70" height="40" as="alternateBounds" />
          </mxGeometry>
        </mxCell>
        <mxCell id="ZYrwEl29k-XDNVmyXL6u-84" value="" style="shape=tableRow;horizontal=0;startSize=0;swimlaneHead=0;swimlaneBody=0;strokeColor=inherit;top=0;left=0;bottom=0;right=0;collapsible=0;dropTarget=0;fillColor=none;points=[[0,0.5],[1,0.5]];portConstraint=eastwest;" vertex="1" parent="ZYrwEl29k-XDNVmyXL6u-78">
          <mxGeometry y="70" width="386" height="40" as="geometry" />
        </mxCell>
        <mxCell id="ZYrwEl29k-XDNVmyXL6u-125" style="shape=partialRectangle;html=1;whiteSpace=wrap;connectable=0;strokeColor=inherit;overflow=hidden;fillColor=none;top=0;left=0;bottom=0;right=0;pointerEvents=1;" vertex="1" parent="ZYrwEl29k-XDNVmyXL6u-84">
          <mxGeometry width="60" height="40" as="geometry">
            <mxRectangle width="60" height="40" as="alternateBounds" />
          </mxGeometry>
        </mxCell>
        <mxCell id="ZYrwEl29k-XDNVmyXL6u-129" style="shape=partialRectangle;html=1;whiteSpace=wrap;connectable=0;strokeColor=inherit;overflow=hidden;fillColor=none;top=0;left=0;bottom=0;right=0;pointerEvents=1;" vertex="1" parent="ZYrwEl29k-XDNVmyXL6u-84">
          <mxGeometry x="60" width="60" height="40" as="geometry">
            <mxRectangle width="60" height="40" as="alternateBounds" />
          </mxGeometry>
        </mxCell>
        <mxCell id="ZYrwEl29k-XDNVmyXL6u-85" value="" style="shape=partialRectangle;html=1;whiteSpace=wrap;connectable=0;strokeColor=inherit;overflow=hidden;fillColor=none;top=0;left=0;bottom=0;right=0;pointerEvents=1;" vertex="1" parent="ZYrwEl29k-XDNVmyXL6u-84">
          <mxGeometry x="120" width="60" height="40" as="geometry">
            <mxRectangle width="60" height="40" as="alternateBounds" />
          </mxGeometry>
        </mxCell>
        <mxCell id="ZYrwEl29k-XDNVmyXL6u-86" value="" style="shape=partialRectangle;html=1;whiteSpace=wrap;connectable=0;strokeColor=inherit;overflow=hidden;fillColor=none;top=0;left=0;bottom=0;right=0;pointerEvents=1;" vertex="1" parent="ZYrwEl29k-XDNVmyXL6u-84">
          <mxGeometry x="180" width="76" height="40" as="geometry">
            <mxRectangle width="76" height="40" as="alternateBounds" />
          </mxGeometry>
        </mxCell>
        <mxCell id="ZYrwEl29k-XDNVmyXL6u-87" value="" style="shape=partialRectangle;html=1;whiteSpace=wrap;connectable=0;strokeColor=inherit;overflow=hidden;fillColor=none;top=0;left=0;bottom=0;right=0;pointerEvents=1;" vertex="1" parent="ZYrwEl29k-XDNVmyXL6u-84">
          <mxGeometry x="256" width="60" height="40" as="geometry">
            <mxRectangle width="60" height="40" as="alternateBounds" />
          </mxGeometry>
        </mxCell>
        <mxCell id="ZYrwEl29k-XDNVmyXL6u-88" value="" style="shape=partialRectangle;html=1;whiteSpace=wrap;connectable=0;strokeColor=inherit;overflow=hidden;fillColor=none;top=0;left=0;bottom=0;right=0;pointerEvents=1;" vertex="1" parent="ZYrwEl29k-XDNVmyXL6u-84">
          <mxGeometry x="316" width="70" height="40" as="geometry">
            <mxRectangle width="70" height="40" as="alternateBounds" />
          </mxGeometry>
        </mxCell>
        <mxCell id="ZYrwEl29k-XDNVmyXL6u-89" value="Receptionist Entry details" style="shape=table;startSize=30;container=1;collapsible=0;childLayout=tableLayout;" vertex="1" parent="1">
          <mxGeometry y="270" width="530" height="150" as="geometry" />
        </mxCell>
        <mxCell id="ZYrwEl29k-XDNVmyXL6u-90" value="" style="shape=tableRow;horizontal=0;startSize=0;swimlaneHead=0;swimlaneBody=0;strokeColor=inherit;top=0;left=0;bottom=0;right=0;collapsible=0;dropTarget=0;fillColor=none;points=[[0,0.5],[1,0.5]];portConstraint=eastwest;" vertex="1" parent="ZYrwEl29k-XDNVmyXL6u-89">
          <mxGeometry y="30" width="530" height="40" as="geometry" />
        </mxCell>
        <mxCell id="ZYrwEl29k-XDNVmyXL6u-91" value="Change DateTime" style="shape=partialRectangle;html=1;whiteSpace=wrap;connectable=0;strokeColor=inherit;overflow=hidden;fillColor=none;top=0;left=0;bottom=0;right=0;pointerEvents=1;" vertex="1" parent="ZYrwEl29k-XDNVmyXL6u-90">
          <mxGeometry width="70" height="40" as="geometry">
            <mxRectangle width="70" height="40" as="alternateBounds" />
          </mxGeometry>
        </mxCell>
        <mxCell id="YJUm__-WV3ZsGlKypcZS-25" value="Change Type" style="shape=partialRectangle;html=1;whiteSpace=wrap;connectable=0;strokeColor=inherit;overflow=hidden;fillColor=none;top=0;left=0;bottom=0;right=0;pointerEvents=1;" vertex="1" parent="ZYrwEl29k-XDNVmyXL6u-90">
          <mxGeometry x="70" width="70" height="40" as="geometry">
            <mxRectangle width="70" height="40" as="alternateBounds" />
          </mxGeometry>
        </mxCell>
        <mxCell id="ZYrwEl29k-XDNVmyXL6u-92" value="Receptionist ID" style="shape=partialRectangle;html=1;whiteSpace=wrap;connectable=0;strokeColor=inherit;overflow=hidden;fillColor=none;top=0;left=0;bottom=0;right=0;pointerEvents=1;" vertex="1" parent="ZYrwEl29k-XDNVmyXL6u-90">
          <mxGeometry x="140" width="90" height="40" as="geometry">
            <mxRectangle width="90" height="40" as="alternateBounds" />
          </mxGeometry>
        </mxCell>
        <mxCell id="ZYrwEl29k-XDNVmyXL6u-93" value="Patient Assigned to Department" style="shape=partialRectangle;html=1;whiteSpace=wrap;connectable=0;strokeColor=inherit;overflow=hidden;fillColor=none;top=0;left=0;bottom=0;right=0;pointerEvents=1;" vertex="1" parent="ZYrwEl29k-XDNVmyXL6u-90">
          <mxGeometry x="230" width="100" height="40" as="geometry">
            <mxRectangle width="100" height="40" as="alternateBounds" />
          </mxGeometry>
        </mxCell>
        <mxCell id="ZYrwEl29k-XDNVmyXL6u-94" value="Patient ID" style="shape=partialRectangle;html=1;whiteSpace=wrap;connectable=0;strokeColor=inherit;overflow=hidden;fillColor=none;top=0;left=0;bottom=0;right=0;pointerEvents=1;" vertex="1" parent="ZYrwEl29k-XDNVmyXL6u-90">
          <mxGeometry x="330" width="100" height="40" as="geometry">
            <mxRectangle width="100" height="40" as="alternateBounds" />
          </mxGeometry>
        </mxCell>
        <mxCell id="ZYrwEl29k-XDNVmyXL6u-100" value="Comments" style="shape=partialRectangle;html=1;whiteSpace=wrap;connectable=0;strokeColor=inherit;overflow=hidden;fillColor=none;top=0;left=0;bottom=0;right=0;pointerEvents=1;" vertex="1" parent="ZYrwEl29k-XDNVmyXL6u-90">
          <mxGeometry x="430" width="100" height="40" as="geometry">
            <mxRectangle width="100" height="40" as="alternateBounds" />
          </mxGeometry>
        </mxCell>
        <mxCell id="ZYrwEl29k-XDNVmyXL6u-95" value="" style="shape=tableRow;horizontal=0;startSize=0;swimlaneHead=0;swimlaneBody=0;strokeColor=inherit;top=0;left=0;bottom=0;right=0;collapsible=0;dropTarget=0;fillColor=none;points=[[0,0.5],[1,0.5]];portConstraint=eastwest;" vertex="1" parent="ZYrwEl29k-XDNVmyXL6u-89">
          <mxGeometry y="70" width="530" height="40" as="geometry" />
        </mxCell>
        <mxCell id="ZYrwEl29k-XDNVmyXL6u-96" value="23.10.2023" style="shape=partialRectangle;html=1;whiteSpace=wrap;connectable=0;strokeColor=inherit;overflow=hidden;fillColor=none;top=0;left=0;bottom=0;right=0;pointerEvents=1;" vertex="1" parent="ZYrwEl29k-XDNVmyXL6u-95">
          <mxGeometry width="70" height="40" as="geometry">
            <mxRectangle width="70" height="40" as="alternateBounds" />
          </mxGeometry>
        </mxCell>
        <mxCell id="YJUm__-WV3ZsGlKypcZS-26" value="ENTRY" style="shape=partialRectangle;html=1;whiteSpace=wrap;connectable=0;strokeColor=inherit;overflow=hidden;fillColor=none;top=0;left=0;bottom=0;right=0;pointerEvents=1;" vertex="1" parent="ZYrwEl29k-XDNVmyXL6u-95">
          <mxGeometry x="70" width="70" height="40" as="geometry">
            <mxRectangle width="70" height="40" as="alternateBounds" />
          </mxGeometry>
        </mxCell>
        <mxCell id="ZYrwEl29k-XDNVmyXL6u-97" value="user123" style="shape=partialRectangle;html=1;whiteSpace=wrap;connectable=0;strokeColor=inherit;overflow=hidden;fillColor=none;top=0;left=0;bottom=0;right=0;pointerEvents=1;" vertex="1" parent="ZYrwEl29k-XDNVmyXL6u-95">
          <mxGeometry x="140" width="90" height="40" as="geometry">
            <mxRectangle width="90" height="40" as="alternateBounds" />
          </mxGeometry>
        </mxCell>
        <mxCell id="ZYrwEl29k-XDNVmyXL6u-98" value="Pathology" style="shape=partialRectangle;html=1;whiteSpace=wrap;connectable=0;strokeColor=inherit;overflow=hidden;fillColor=none;top=0;left=0;bottom=0;right=0;pointerEvents=1;" vertex="1" parent="ZYrwEl29k-XDNVmyXL6u-95">
          <mxGeometry x="230" width="100" height="40" as="geometry">
            <mxRectangle width="100" height="40" as="alternateBounds" />
          </mxGeometry>
        </mxCell>
        <mxCell id="ZYrwEl29k-XDNVmyXL6u-99" value="baarr4556" style="shape=partialRectangle;html=1;whiteSpace=wrap;connectable=0;strokeColor=inherit;overflow=hidden;fillColor=none;top=0;left=0;bottom=0;right=0;pointerEvents=1;" vertex="1" parent="ZYrwEl29k-XDNVmyXL6u-95">
          <mxGeometry x="330" width="100" height="40" as="geometry">
            <mxRectangle width="100" height="40" as="alternateBounds" />
          </mxGeometry>
        </mxCell>
        <mxCell id="ZYrwEl29k-XDNVmyXL6u-101" value="" style="shape=partialRectangle;html=1;whiteSpace=wrap;connectable=0;strokeColor=inherit;overflow=hidden;fillColor=none;top=0;left=0;bottom=0;right=0;pointerEvents=1;" vertex="1" parent="ZYrwEl29k-XDNVmyXL6u-95">
          <mxGeometry x="430" width="100" height="40" as="geometry">
            <mxRectangle width="100" height="40" as="alternateBounds" />
          </mxGeometry>
        </mxCell>
        <mxCell id="4JhfFuS3j0yHOGkvdAfV-1" style="shape=tableRow;horizontal=0;startSize=0;swimlaneHead=0;swimlaneBody=0;strokeColor=inherit;top=0;left=0;bottom=0;right=0;collapsible=0;dropTarget=0;fillColor=none;points=[[0,0.5],[1,0.5]];portConstraint=eastwest;" vertex="1" parent="ZYrwEl29k-XDNVmyXL6u-89">
          <mxGeometry y="110" width="530" height="40" as="geometry" />
        </mxCell>
        <mxCell id="4JhfFuS3j0yHOGkvdAfV-2" style="shape=partialRectangle;html=1;whiteSpace=wrap;connectable=0;strokeColor=inherit;overflow=hidden;fillColor=none;top=0;left=0;bottom=0;right=0;pointerEvents=1;" vertex="1" parent="4JhfFuS3j0yHOGkvdAfV-1">
          <mxGeometry width="70" height="40" as="geometry">
            <mxRectangle width="70" height="40" as="alternateBounds" />
          </mxGeometry>
        </mxCell>
        <mxCell id="4JhfFuS3j0yHOGkvdAfV-3" style="shape=partialRectangle;html=1;whiteSpace=wrap;connectable=0;strokeColor=inherit;overflow=hidden;fillColor=none;top=0;left=0;bottom=0;right=0;pointerEvents=1;" vertex="1" parent="4JhfFuS3j0yHOGkvdAfV-1">
          <mxGeometry x="70" width="70" height="40" as="geometry">
            <mxRectangle width="70" height="40" as="alternateBounds" />
          </mxGeometry>
        </mxCell>
        <mxCell id="4JhfFuS3j0yHOGkvdAfV-4" style="shape=partialRectangle;html=1;whiteSpace=wrap;connectable=0;strokeColor=inherit;overflow=hidden;fillColor=none;top=0;left=0;bottom=0;right=0;pointerEvents=1;" vertex="1" parent="4JhfFuS3j0yHOGkvdAfV-1">
          <mxGeometry x="140" width="90" height="40" as="geometry">
            <mxRectangle width="90" height="40" as="alternateBounds" />
          </mxGeometry>
        </mxCell>
        <mxCell id="4JhfFuS3j0yHOGkvdAfV-5" style="shape=partialRectangle;html=1;whiteSpace=wrap;connectable=0;strokeColor=inherit;overflow=hidden;fillColor=none;top=0;left=0;bottom=0;right=0;pointerEvents=1;" vertex="1" parent="4JhfFuS3j0yHOGkvdAfV-1">
          <mxGeometry x="230" width="100" height="40" as="geometry">
            <mxRectangle width="100" height="40" as="alternateBounds" />
          </mxGeometry>
        </mxCell>
        <mxCell id="4JhfFuS3j0yHOGkvdAfV-6" style="shape=partialRectangle;html=1;whiteSpace=wrap;connectable=0;strokeColor=inherit;overflow=hidden;fillColor=none;top=0;left=0;bottom=0;right=0;pointerEvents=1;" vertex="1" parent="4JhfFuS3j0yHOGkvdAfV-1">
          <mxGeometry x="330" width="100" height="40" as="geometry">
            <mxRectangle width="100" height="40" as="alternateBounds" />
          </mxGeometry>
        </mxCell>
        <mxCell id="4JhfFuS3j0yHOGkvdAfV-7" style="shape=partialRectangle;html=1;whiteSpace=wrap;connectable=0;strokeColor=inherit;overflow=hidden;fillColor=none;top=0;left=0;bottom=0;right=0;pointerEvents=1;" vertex="1" parent="4JhfFuS3j0yHOGkvdAfV-1">
          <mxGeometry x="430" width="100" height="40" as="geometry">
            <mxRectangle width="100" height="40" as="alternateBounds" />
          </mxGeometry>
        </mxCell>
        <mxCell id="ZYrwEl29k-XDNVmyXL6u-113" value="X-Ray Department" style="shape=table;startSize=30;container=1;collapsible=0;childLayout=tableLayout;" vertex="1" parent="1">
          <mxGeometry x="-120" y="550" width="300" height="110" as="geometry" />
        </mxCell>
        <mxCell id="ZYrwEl29k-XDNVmyXL6u-114" value="" style="shape=tableRow;horizontal=0;startSize=0;swimlaneHead=0;swimlaneBody=0;strokeColor=inherit;top=0;left=0;bottom=0;right=0;collapsible=0;dropTarget=0;fillColor=none;points=[[0,0.5],[1,0.5]];portConstraint=eastwest;" vertex="1" parent="ZYrwEl29k-XDNVmyXL6u-113">
          <mxGeometry y="30" width="300" height="40" as="geometry" />
        </mxCell>
        <mxCell id="ZYrwEl29k-XDNVmyXL6u-115" value="X-Ray Takers ID" style="shape=partialRectangle;html=1;whiteSpace=wrap;connectable=0;strokeColor=inherit;overflow=hidden;fillColor=none;top=0;left=0;bottom=0;right=0;pointerEvents=1;" vertex="1" parent="ZYrwEl29k-XDNVmyXL6u-114">
          <mxGeometry width="60" height="40" as="geometry">
            <mxRectangle width="60" height="40" as="alternateBounds" />
          </mxGeometry>
        </mxCell>
        <mxCell id="ZYrwEl29k-XDNVmyXL6u-126" value="X-Ray ID" style="shape=partialRectangle;html=1;whiteSpace=wrap;connectable=0;strokeColor=inherit;overflow=hidden;fillColor=none;top=0;left=0;bottom=0;right=0;pointerEvents=1;" vertex="1" parent="ZYrwEl29k-XDNVmyXL6u-114">
          <mxGeometry x="60" width="60" height="40" as="geometry">
            <mxRectangle width="60" height="40" as="alternateBounds" />
          </mxGeometry>
        </mxCell>
        <mxCell id="ZYrwEl29k-XDNVmyXL6u-116" value="Patient ID" style="shape=partialRectangle;html=1;whiteSpace=wrap;connectable=0;strokeColor=inherit;overflow=hidden;fillColor=none;top=0;left=0;bottom=0;right=0;pointerEvents=1;" vertex="1" parent="ZYrwEl29k-XDNVmyXL6u-114">
          <mxGeometry x="120" width="60" height="40" as="geometry">
            <mxRectangle width="60" height="40" as="alternateBounds" />
          </mxGeometry>
        </mxCell>
        <mxCell id="ZYrwEl29k-XDNVmyXL6u-117" value="Date of Taking" style="shape=partialRectangle;html=1;whiteSpace=wrap;connectable=0;strokeColor=inherit;overflow=hidden;fillColor=none;top=0;left=0;bottom=0;right=0;pointerEvents=1;" vertex="1" parent="ZYrwEl29k-XDNVmyXL6u-114">
          <mxGeometry x="180" width="60" height="40" as="geometry">
            <mxRectangle width="60" height="40" as="alternateBounds" />
          </mxGeometry>
        </mxCell>
        <mxCell id="ZYrwEl29k-XDNVmyXL6u-118" value="Comments" style="shape=partialRectangle;html=1;whiteSpace=wrap;connectable=0;strokeColor=inherit;overflow=hidden;fillColor=none;top=0;left=0;bottom=0;right=0;pointerEvents=1;" vertex="1" parent="ZYrwEl29k-XDNVmyXL6u-114">
          <mxGeometry x="240" width="60" height="40" as="geometry">
            <mxRectangle width="60" height="40" as="alternateBounds" />
          </mxGeometry>
        </mxCell>
        <mxCell id="ZYrwEl29k-XDNVmyXL6u-119" value="" style="shape=tableRow;horizontal=0;startSize=0;swimlaneHead=0;swimlaneBody=0;strokeColor=inherit;top=0;left=0;bottom=0;right=0;collapsible=0;dropTarget=0;fillColor=none;points=[[0,0.5],[1,0.5]];portConstraint=eastwest;" vertex="1" parent="ZYrwEl29k-XDNVmyXL6u-113">
          <mxGeometry y="70" width="300" height="40" as="geometry" />
        </mxCell>
        <mxCell id="ZYrwEl29k-XDNVmyXL6u-120" value="" style="shape=partialRectangle;html=1;whiteSpace=wrap;connectable=0;strokeColor=inherit;overflow=hidden;fillColor=none;top=0;left=0;bottom=0;right=0;pointerEvents=1;" vertex="1" parent="ZYrwEl29k-XDNVmyXL6u-119">
          <mxGeometry width="60" height="40" as="geometry">
            <mxRectangle width="60" height="40" as="alternateBounds" />
          </mxGeometry>
        </mxCell>
        <mxCell id="ZYrwEl29k-XDNVmyXL6u-127" style="shape=partialRectangle;html=1;whiteSpace=wrap;connectable=0;strokeColor=inherit;overflow=hidden;fillColor=none;top=0;left=0;bottom=0;right=0;pointerEvents=1;" vertex="1" parent="ZYrwEl29k-XDNVmyXL6u-119">
          <mxGeometry x="60" width="60" height="40" as="geometry">
            <mxRectangle width="60" height="40" as="alternateBounds" />
          </mxGeometry>
        </mxCell>
        <mxCell id="ZYrwEl29k-XDNVmyXL6u-121" value="" style="shape=partialRectangle;html=1;whiteSpace=wrap;connectable=0;strokeColor=inherit;overflow=hidden;fillColor=none;top=0;left=0;bottom=0;right=0;pointerEvents=1;" vertex="1" parent="ZYrwEl29k-XDNVmyXL6u-119">
          <mxGeometry x="120" width="60" height="40" as="geometry">
            <mxRectangle width="60" height="40" as="alternateBounds" />
          </mxGeometry>
        </mxCell>
        <mxCell id="ZYrwEl29k-XDNVmyXL6u-122" value="" style="shape=partialRectangle;html=1;whiteSpace=wrap;connectable=0;strokeColor=inherit;overflow=hidden;fillColor=none;top=0;left=0;bottom=0;right=0;pointerEvents=1;" vertex="1" parent="ZYrwEl29k-XDNVmyXL6u-119">
          <mxGeometry x="180" width="60" height="40" as="geometry">
            <mxRectangle width="60" height="40" as="alternateBounds" />
          </mxGeometry>
        </mxCell>
        <mxCell id="ZYrwEl29k-XDNVmyXL6u-123" value="" style="shape=partialRectangle;html=1;whiteSpace=wrap;connectable=0;strokeColor=inherit;overflow=hidden;fillColor=none;top=0;left=0;bottom=0;right=0;pointerEvents=1;" vertex="1" parent="ZYrwEl29k-XDNVmyXL6u-119">
          <mxGeometry x="240" width="60" height="40" as="geometry">
            <mxRectangle width="60" height="40" as="alternateBounds" />
          </mxGeometry>
        </mxCell>
        <mxCell id="YJUm__-WV3ZsGlKypcZS-11" value="Patient National ID" style="shape=table;startSize=30;container=1;collapsible=0;childLayout=tableLayout;" vertex="1" parent="1">
          <mxGeometry x="670" y="40" width="270" height="195" as="geometry" />
        </mxCell>
        <mxCell id="YJUm__-WV3ZsGlKypcZS-12" value="" style="shape=tableRow;horizontal=0;startSize=0;swimlaneHead=0;swimlaneBody=0;strokeColor=inherit;top=0;left=0;bottom=0;right=0;collapsible=0;dropTarget=0;fillColor=none;points=[[0,0.5],[1,0.5]];portConstraint=eastwest;" vertex="1" parent="YJUm__-WV3ZsGlKypcZS-11">
          <mxGeometry y="30" width="270" height="55" as="geometry" />
        </mxCell>
        <mxCell id="YJUm__-WV3ZsGlKypcZS-13" value="Paitent ID" style="shape=partialRectangle;html=1;whiteSpace=wrap;connectable=0;strokeColor=#82b366;overflow=hidden;fillColor=#d5e8d4;top=0;left=0;bottom=0;right=0;pointerEvents=1;" vertex="1" parent="YJUm__-WV3ZsGlKypcZS-12">
          <mxGeometry width="90" height="55" as="geometry">
            <mxRectangle width="90" height="55" as="alternateBounds" />
          </mxGeometry>
        </mxCell>
        <mxCell id="YJUm__-WV3ZsGlKypcZS-14" value="National ID Type" style="shape=partialRectangle;html=1;whiteSpace=wrap;connectable=0;strokeColor=#82b366;overflow=hidden;fillColor=#d5e8d4;top=0;left=0;bottom=0;right=0;pointerEvents=1;" vertex="1" parent="YJUm__-WV3ZsGlKypcZS-12">
          <mxGeometry x="90" width="90" height="55" as="geometry">
            <mxRectangle width="90" height="55" as="alternateBounds" />
          </mxGeometry>
        </mxCell>
        <mxCell id="YJUm__-WV3ZsGlKypcZS-18" value="National ID Value" style="shape=partialRectangle;html=1;whiteSpace=wrap;connectable=0;strokeColor=inherit;overflow=hidden;fillColor=none;top=0;left=0;bottom=0;right=0;pointerEvents=1;" vertex="1" parent="YJUm__-WV3ZsGlKypcZS-12">
          <mxGeometry x="180" width="90" height="55" as="geometry">
            <mxRectangle width="90" height="55" as="alternateBounds" />
          </mxGeometry>
        </mxCell>
        <mxCell id="YJUm__-WV3ZsGlKypcZS-15" value="" style="shape=tableRow;horizontal=0;startSize=0;swimlaneHead=0;swimlaneBody=0;strokeColor=inherit;top=0;left=0;bottom=0;right=0;collapsible=0;dropTarget=0;fillColor=none;points=[[0,0.5],[1,0.5]];portConstraint=eastwest;" vertex="1" parent="YJUm__-WV3ZsGlKypcZS-11">
          <mxGeometry y="85" width="270" height="55" as="geometry" />
        </mxCell>
        <mxCell id="YJUm__-WV3ZsGlKypcZS-16" value="baarr4556" style="shape=partialRectangle;html=1;whiteSpace=wrap;connectable=0;strokeColor=inherit;overflow=hidden;fillColor=none;top=0;left=0;bottom=0;right=0;pointerEvents=1;" vertex="1" parent="YJUm__-WV3ZsGlKypcZS-15">
          <mxGeometry width="90" height="55" as="geometry">
            <mxRectangle width="90" height="55" as="alternateBounds" />
          </mxGeometry>
        </mxCell>
        <mxCell id="YJUm__-WV3ZsGlKypcZS-17" value="Aadhar Card" style="shape=partialRectangle;html=1;whiteSpace=wrap;connectable=0;strokeColor=inherit;overflow=hidden;fillColor=none;top=0;left=0;bottom=0;right=0;pointerEvents=1;" vertex="1" parent="YJUm__-WV3ZsGlKypcZS-15">
          <mxGeometry x="90" width="90" height="55" as="geometry">
            <mxRectangle width="90" height="55" as="alternateBounds" />
          </mxGeometry>
        </mxCell>
        <mxCell id="YJUm__-WV3ZsGlKypcZS-19" value="ZUPKU234" style="shape=partialRectangle;html=1;whiteSpace=wrap;connectable=0;strokeColor=inherit;overflow=hidden;fillColor=none;top=0;left=0;bottom=0;right=0;pointerEvents=1;" vertex="1" parent="YJUm__-WV3ZsGlKypcZS-15">
          <mxGeometry x="180" width="90" height="55" as="geometry">
            <mxRectangle width="90" height="55" as="alternateBounds" />
          </mxGeometry>
        </mxCell>
        <mxCell id="YJUm__-WV3ZsGlKypcZS-21" style="shape=tableRow;horizontal=0;startSize=0;swimlaneHead=0;swimlaneBody=0;strokeColor=inherit;top=0;left=0;bottom=0;right=0;collapsible=0;dropTarget=0;fillColor=none;points=[[0,0.5],[1,0.5]];portConstraint=eastwest;" vertex="1" parent="YJUm__-WV3ZsGlKypcZS-11">
          <mxGeometry y="140" width="270" height="55" as="geometry" />
        </mxCell>
        <mxCell id="YJUm__-WV3ZsGlKypcZS-22" value="baarr4556" style="shape=partialRectangle;html=1;whiteSpace=wrap;connectable=0;strokeColor=inherit;overflow=hidden;fillColor=none;top=0;left=0;bottom=0;right=0;pointerEvents=1;" vertex="1" parent="YJUm__-WV3ZsGlKypcZS-21">
          <mxGeometry width="90" height="55" as="geometry">
            <mxRectangle width="90" height="55" as="alternateBounds" />
          </mxGeometry>
        </mxCell>
        <mxCell id="YJUm__-WV3ZsGlKypcZS-23" value="Passport" style="shape=partialRectangle;html=1;whiteSpace=wrap;connectable=0;strokeColor=inherit;overflow=hidden;fillColor=none;top=0;left=0;bottom=0;right=0;pointerEvents=1;" vertex="1" parent="YJUm__-WV3ZsGlKypcZS-21">
          <mxGeometry x="90" width="90" height="55" as="geometry">
            <mxRectangle width="90" height="55" as="alternateBounds" />
          </mxGeometry>
        </mxCell>
        <mxCell id="YJUm__-WV3ZsGlKypcZS-24" value="PPAOR789" style="shape=partialRectangle;html=1;whiteSpace=wrap;connectable=0;strokeColor=inherit;overflow=hidden;fillColor=none;top=0;left=0;bottom=0;right=0;pointerEvents=1;" vertex="1" parent="YJUm__-WV3ZsGlKypcZS-21">
          <mxGeometry x="180" width="90" height="55" as="geometry">
            <mxRectangle width="90" height="55" as="alternateBounds" />
          </mxGeometry>
        </mxCell>
      </root>
    </mxGraphModel>
  </diagram>
  <diagram id="9kDugbk_ZryFB_NFMUuh" name="Page-4">
    <mxGraphModel dx="954" dy="523" grid="1" gridSize="10" guides="1" tooltips="1" connect="1" arrows="1" fold="1" page="1" pageScale="1" pageWidth="827" pageHeight="1169" math="0" shadow="0">
      <root>
        <mxCell id="0" />
        <mxCell id="1" parent="0" />
      </root>
    </mxGraphModel>
  </diagram>
</mxfile>
